<svg xmlns="http://www.w3.org/2000/svg" width="116" height="53" fill="none" viewBox="0 0 116 53"><g clip-path="url(#clip0_1_405)"><path fill="#0F1518" d="M115.09 22.9956C114.869 23.4788 114.433 23.8112 113.919 23.8846L112.117 24.2055C113.493 25.5854 114.784 27.2205 114.653 29.7523C114.622 34.472 111.344 37.603 105.608 38.4534V42.342C105.608 43.0957 105.071 43.7335 104.332 43.865C102.833 44.1703 66.8689 51.4528 58.3727 51.4528H58.3688C57.5339 51.4528 56.9579 51.3832 56.5482 51.2363L56.498 51.217C55.404 50.7686 54.515 50.0844 53.711 49.3307C53.2317 48.8745 52.7833 48.3952 52.3388 47.9198C52.13 47.6956 51.2487 46.8297 50.2089 45.7977C50.1432 45.732 50.0775 45.6662 50.0118 45.6005C50.0041 45.5928 49.9963 45.5851 49.9925 45.5773C46.6334 42.1139 47.449 37.6146 47.9863 35.7553L44.148 36.4395V36.4318C43.8233 36.4936 43.4599 36.5593 43.0695 36.6328L42.0104 36.8222C35.7446 37.9354 23.7695 39.899 16.1817 41.1321C15.7372 41.2017 15.4821 41.2442 15.4473 41.2519C12.5096 41.7699 11.6669 41.9168 11.3924 41.9593C11.319 41.9748 11.2494 41.9786 11.1799 41.9786C10.4145 41.9786 9.6878 41.1321 9.6878 41.1321C9.6878 41.1321 7.39561 38.7935 6.18187 37.5953C5.86104 37.3015 5.6755 36.8879 5.6755 36.4511V29.5552L5.40879 29.2846C4.05203 27.924 2.69527 26.5595 1.33078 25.2105L1.25347 25.137L1.22642 25.0945L1.19549 25.0675C1.00609 24.8974 0.557699 24.5031 0.553833 23.8035V20.4869C0.553833 19.7332 1.09113 19.0954 1.82942 18.964L17.1751 16.2582H17.1867L17.3491 16.2273L18.3618 16.0495C19.1581 15.8948 20.2327 15.69 20.9709 15.5895L27.8784 14.3719L28.0872 14.3332H28.1065C28.2572 14.3062 28.7945 14.2095 29.4246 14.0974C31.423 13.7418 31.9874 13.6413 32.1922 13.6142L33.7152 13.3475C33.8003 13.3243 33.8814 13.3089 33.9703 13.3011C34.094 13.2818 34.4728 13.2084 34.9019 13.1311C36.135 12.9069 36.479 12.845 36.6452 12.8296L45.555 11.2641C45.5975 11.2486 45.6516 11.237 45.7057 11.2254L45.8526 11.2022H45.8835L45.9647 11.1906C46.0729 11.1713 46.2276 11.1404 46.3938 11.1056C46.9349 10.9974 47.5998 10.8621 48.0945 10.8157L49.7373 10.5258C49.8147 10.5026 49.892 10.4871 49.9693 10.4755L53.4481 9.86097C53.5061 9.84937 53.568 9.8455 53.6337 9.84164L60.0425 8.71294C60.0967 8.69361 60.1585 8.67815 60.2319 8.66655L60.2938 8.65496C60.4445 8.63177 60.9818 8.53513 61.6158 8.42303C64.0742 7.98238 64.3718 7.93213 64.511 7.92826L65.8407 7.69247C65.9257 7.66155 66.0146 7.64222 66.1074 7.63062C70.4714 6.86141 71.8089 6.62562 72.2534 6.55217C72.6245 6.46713 72.9994 6.40529 73.4323 6.35504L81.9981 4.84753C82.0793 4.82047 82.1566 4.80114 82.2339 4.78568L82.3035 4.77408C82.605 4.72383 84.2709 4.43006 86.0258 4.11696C91.4091 3.16607 94.1548 2.69063 94.263 2.69063L95.4845 2.47416C95.6082 2.42778 95.7396 2.39686 95.8788 2.38526C96.5166 2.31955 97.5371 2.11468 98.6194 1.89435C100.618 1.48848 102.887 1.0285 104.707 1.0285C105.542 1.0285 106.215 1.12514 106.764 1.32227C107.668 1.58898 108.356 2.07216 108.94 2.60172C109.234 2.86844 113.289 7.03922 113.586 7.41416L113.625 7.46441L113.66 7.51466C115.457 10.3635 114.719 14.6347 112.229 16.9501L115.005 21.5615C115.268 21.9674 115.306 22.5163 115.09 22.9956Z"/><path fill="#fff" d="M2.10034 23.7803L7.22201 22.8758V36.4318L11.242 35.7245V22.1684L16.356 21.2678V17.9551L2.10034 20.4677V23.7803Z"/><path fill="#fff" d="M28.3079 22.6169L21.6593 23.792V17.0198L17.5852 17.7387V34.6074L21.6593 33.8884V27.1085L28.3079 25.9373V32.7172L32.3781 31.9982V15.1296L28.3079 15.8485V22.6169Z"/><path fill="#fff" d="M54.2872 18.3997L54.3916 18.3804L61.1058 26.9307L64.5654 26.3238V9.45508L60.4951 10.174V19.8917L60.3559 19.9149L53.719 11.3685L50.2092 11.987V28.8518L54.2872 28.1367V18.3997Z"/><path fill="#fff" d="M77.0197 23.1193C78.2644 22.2264 79.2268 21.09 79.8994 19.71C80.572 18.3301 80.9083 16.7607 80.9083 15.002C80.9083 13.2432 80.572 11.8053 79.8956 10.665C79.2191 9.52464 78.2605 8.72837 77.0158 8.27225C75.7712 7.82 74.2907 7.74269 72.5745 8.04805L66.3473 9.14583V26.0145L72.5822 24.9167C74.2946 24.6152 75.775 24.0161 77.0197 23.1271V23.1193ZM70.4214 21.8167V11.898L72.3657 11.554C73.3321 11.3839 74.1477 11.3994 74.8087 11.6043C75.4697 11.8091 75.9722 12.2421 76.3123 12.903C76.6525 13.564 76.8226 14.5033 76.8226 15.7171C76.8226 16.9308 76.6525 17.9319 76.3162 18.7166C75.9799 19.5052 75.4813 20.1159 74.8241 20.5527C74.167 20.9895 73.3669 21.291 72.4237 21.4572L70.4214 21.809V21.8167Z"/><path fill="#fff" d="M94.2632 17.7734L86.5826 19.1301V15.6629L93.6641 14.4143V11.0939L86.5826 12.3425V8.88297L94.2632 7.53007V4.21741L82.5046 6.29314V23.1579L94.2632 21.086V17.7734Z"/><path fill="#fff" d="M70.3558 26.7219L66.2778 27.4409V44.3057L77.3716 42.3498V39.041L70.3558 40.2779V26.7219Z"/><path fill="#fff" d="M83.8809 24.3371L78.191 42.2069L82.5744 41.4338L83.6838 37.6959L89.509 36.6677L90.6222 40.0152L95.0056 39.2421L89.3157 23.3784L83.8887 24.3371H83.8809ZM84.6501 34.4296L86.5249 28.1213L86.6563 28.0981L88.5349 33.7455L84.654 34.4296H84.6501Z"/><path fill="#fff" d="M106.285 21.1209C105.365 20.7923 104.275 20.7382 103.011 20.9624L96.0415 22.1916V39.0603L100.119 38.3413V33.1037L102.887 32.6166C104.178 32.3886 105.291 31.9556 106.231 31.3101C107.17 30.6685 107.893 29.8645 108.403 28.9058C108.909 27.9472 109.164 26.8842 109.164 25.7207C109.164 24.5572 108.913 23.5909 108.415 22.8023C107.916 22.0138 107.205 21.4572 106.285 21.1286V21.1209ZM104.619 27.8738C104.406 28.299 104.089 28.6546 103.676 28.9406C103.262 29.2267 102.748 29.4277 102.129 29.5359L100.119 29.8915V24.7621L102.129 24.4065C102.74 24.2983 103.254 24.3137 103.668 24.449C104.085 24.5843 104.402 24.824 104.615 25.168C104.827 25.512 104.936 25.9449 104.936 26.4668C104.936 26.9886 104.827 27.4524 104.615 27.8776L104.619 27.8738Z"/><path fill="#fff" d="M100.123 14.279L102.211 13.9118L105.295 19.1417L109.74 18.357L106.242 12.5512C107.17 11.9636 107.893 11.2176 108.399 10.3209C108.909 9.41637 109.164 8.37657 109.164 7.20922C109.164 6.04187 108.913 5.10257 108.415 4.34881C107.916 3.59506 107.205 3.07323 106.285 2.77946C105.365 2.48955 104.275 2.45476 103.011 2.67896L96.0415 3.90816V20.7729L100.119 20.054V14.279H100.123ZM102.133 6.11531C102.744 6.00708 103.258 6.00321 103.672 6.10371C104.089 6.20421 104.406 6.40521 104.619 6.71058C104.831 7.01595 104.94 7.42955 104.94 7.95138C104.94 8.47321 104.831 8.91773 104.619 9.28881C104.406 9.65989 104.089 9.96139 103.676 10.1972C103.262 10.433 102.748 10.603 102.129 10.7113L100.119 11.0669V6.47093L102.129 6.11531H102.133Z"/><path fill="#fff" d="M55.2302 33.2699C55.8216 32.7635 56.5252 32.4388 57.3408 32.2958C57.8007 32.2146 58.2221 32.203 58.6047 32.2649C58.9874 32.3267 59.316 32.4543 59.5982 32.6476C59.8765 32.8408 60.1045 33.0921 60.2746 33.4013C60.4447 33.7106 60.5568 34.0739 60.6109 34.4875L64.7276 33.7608C64.6271 32.7674 64.3719 31.917 63.9622 31.2019C63.5525 30.4868 63.0152 29.9224 62.3542 29.4973C61.6971 29.0721 60.9317 28.7937 60.0659 28.6662C59.1962 28.5348 58.253 28.5618 57.2325 28.7435C55.7327 29.0063 54.3798 29.5823 53.1738 30.4636C51.9678 31.3449 51.0092 32.4968 50.298 33.9116C49.5906 35.3263 49.235 36.9614 49.235 38.8168C49.235 40.6722 49.5829 42.1758 50.2825 43.3432C50.9783 44.5105 51.9292 45.3261 53.1352 45.7861C54.3412 46.2461 55.7057 46.3427 57.2325 46.0721C58.3921 45.8673 59.4203 45.5117 60.3171 45.0014C61.2139 44.4912 61.9754 43.8843 62.6016 43.1769C63.2278 42.4696 63.7187 41.7236 64.0782 40.935C64.4377 40.1465 64.6541 39.3734 64.7237 38.6119L60.607 39.3115C60.5375 39.729 60.406 40.1155 60.2243 40.4712C60.0388 40.8229 59.8069 41.136 59.5247 41.4105C59.2425 41.681 58.914 41.9091 58.5429 42.0908C58.1718 42.2724 57.7621 42.4 57.3098 42.4812C56.5097 42.6242 55.8139 42.5546 55.2302 42.2763C54.6466 41.998 54.1943 41.511 53.8696 40.8113C53.5488 40.1117 53.3864 39.2033 53.3864 38.0823C53.3864 36.9614 53.5449 36.0607 53.8619 35.249C54.1788 34.4372 54.6311 33.7763 55.2225 33.2699H55.2302Z"/><path fill="#fff" d="M44.5732 22.381L41.1136 23.7842L43.0077 30.1969C43.7383 29.9456 44.4108 29.6209 45.0293 29.2189C46.1 28.5232 46.935 27.6573 47.5341 26.6214C48.1332 25.5854 48.4309 24.4374 48.4309 23.1812V12.3L45.9725 12.7329L44.5732 22.381Z"/><path fill="#fff" d="M39.9308 20.2202L36.7728 14.3564L34.1559 14.8163V25.6975C34.1559 26.9537 34.4535 27.9974 35.0449 28.8246C35.6363 29.6518 36.4713 30.2239 37.542 30.5408C38.6127 30.8617 39.8651 30.8926 41.2992 30.6413C41.7746 30.5563 42.2269 30.4481 42.6637 30.3128L35.7098 23.9967L39.9347 20.2202H39.9308Z"/></g><defs><clipPath id="clip0_1_405"><rect width="115" height="52" fill="#fff" transform="translate(0.230103 0.448059)"/></clipPath></defs></svg>